<svg xmlns="http://www.w3.org/2000/svg" xmlns:xlink="http://www.w3.org/1999/xlink" width="1080" zoomAndPan="magnify" viewBox="0 0 810 809.999993" height="1080" preserveAspectRatio="xMidYMid meet" version="1.2"><defs><clipPath id="7af1467a51"><path d="M 24.574219 50.054688 L 762.675781 50.054688 L 762.675781 788.15625 L 24.574219 788.15625 Z M 24.574219 50.054688 "/></clipPath><clipPath id="122938c3fe"><path d="M 393.625 50.054688 C 189.800781 50.054688 24.574219 215.285156 24.574219 419.105469 C 24.574219 622.925781 189.800781 788.15625 393.625 788.15625 C 597.445312 788.15625 762.675781 622.925781 762.675781 419.105469 C 762.675781 215.285156 597.445312 50.054688 393.625 50.054688 Z M 393.625 50.054688 "/></clipPath></defs><g id="9aaf952718"><g clip-rule="nonzero" clip-path="url(#7af1467a51)"><g clip-rule="nonzero" clip-path="url(#122938c3fe)"><path style=" stroke:none;fill-rule:nonzero;fill:#000000;fill-opacity:1;" d="M 24.574219 50.054688 L 762.675781 50.054688 L 762.675781 788.15625 L 24.574219 788.15625 Z M 24.574219 50.054688 "/></g></g><g style="fill:#ffffff;fill-opacity:1;"><g transform="translate(155.094927, 656.742595)"><path style="stroke:none" d="M 453.921875 -8.671875 C 454.890625 -6.742188 454.648438 -4.816406 453.203125 -2.890625 C 451.753906 -0.960938 449.828125 0 447.421875 0 L 347.671875 0 C 344.296875 0 342.128906 -1.445312 341.171875 -4.34375 L 226.96875 -326.71875 L 114.203125 -4.34375 C 113.722656 -1.445312 111.3125 0 106.96875 0 L 7.953125 0 C 4.578125 0 2.285156 -0.960938 1.078125 -2.890625 C -0.117188 -4.816406 -0.238281 -6.742188 0.71875 -8.671875 L 219.734375 -573.90625 C 220.703125 -576.800781 223.113281 -578.25 226.96875 -578.25 C 230.820312 -578.25 233.226562 -576.800781 234.1875 -573.90625 Z M 453.921875 -8.671875 "/></g></g></g></svg>